<svg xmlns="http://www.w3.org/2000/svg" viewBox="0 0 400 52"><defs/><path fill="#16a085" d="M268.4 46.4l-9.4 5.5h-10.7L265.2.3h10.2l16.9 51.6h-10.7l-9.5-5.5h-3.7z"/><path d="M17.8 51.8H0V0h17.8c4.6 0 8.3.5 11.3 1.4S34.3 3.9 36 6c1.6 2.2 2.8 4.7 3.4 7.6s.9 6.7.9 11.4-.3 8.5-.9 11.6-1.6 5.8-3.2 8.2-3.9 4.2-6.9 5.3-6.8 1.7-11.5 1.7zm11.3-20.6c.1-1.6.2-3.9.2-6.7 0-2.9-.1-5.2-.3-6.9s-.7-3.3-1.5-4.7-1.9-2.4-3.5-2.9c-1.5-.5-3.6-.8-6.2-.8h-7.1v33.5h7.1c3.9 0 6.7-1 8.5-2.9 1.5-1.6 2.4-4.5 2.8-8.6zM110.9 8.9c-5.6 0-8.5 1.8-8.5 5.3 0 1.6.7 2.8 2.1 3.6s4.7 2 9.8 3.6c5.2 1.6 8.8 3.3 10.8 5.3 2.1 2 3.1 5 3.1 9.2 0 5.2-1.7 9.2-5.1 11.9s-7.8 4-13.2 4c-4 0-9-.6-14.8-1.8l-2.8-.5 1.1-7.9c6.9.9 12.3 1.3 15.9 1.3 5.5 0 8.2-2.2 8.2-6.5 0-1.6-.6-2.8-1.9-3.7s-3.8-1.8-7.6-2.9c-6-1.6-10.2-3.5-12.7-5.8-2.5-2.2-3.7-5.3-3.7-9.3 0-5 1.6-8.7 4.8-11.2S104-.2 109.6-.2c3.8 0 8.7.5 14.6 1.5l2.8.5-.9 8c-7.1-.5-12.2-.9-15.2-.9zM186 51.8V0h18.3l9.3 37.8L222.9 0h18.3v51.8h-10.7V11.7h-1.2L219 49.5h-10.7L198 11.7h-1.2v40.1H186zM291.8 9.3V0h38.9v9.3h-14v42.5H306V9.3h-14.2zM337.5 51.8V0h10.7v51.8h-10.7zM166 .1h11.9l-16.4 20.7 19.3 31h-11.9L155 29.2l-7.1 8.8v13.8h-10.8V37.2L166 .1zM137.1.1h10.8v10l-10.8 14V.1zM385.2.2h11.9L380.7 21 400 52h-11.9l-13.9-22.7-7.1 8.8V52h-10.8V37.3L385.2.2zM356.4.2h10.8v10l-10.8 14V.2zM49.6 0h34.2v9.1H49.6zM49.6 42.7h34.2v9.1H49.6zM49.6 21.3h34.2v9.1H49.6z"/></svg>
