<?xml version="1.0" encoding="utf-8"?>
<!-- Generator: Adobe Illustrator 24.0.3, SVG Export Plug-In . SVG Version: 6.00 Build 0)  -->
<svg version="1.1" id="Layer_1" xmlns="http://www.w3.org/2000/svg" xmlns:xlink="http://www.w3.org/1999/xlink" x="0px" y="0px"
	 viewBox="0 0 400 52" style="enable-background:new 0 0 400 52;" xml:space="preserve">
<style type="text/css">
	.st0{fill:#16A085;}
</style>
<g>
	<path class="st0" d="M268.4,46.4l-9.4,5.5h-10.7l16.9-51.6h10.2l16.9,51.6h-10.7l-9.5-5.5L268.4,46.4z"/>
	<path d="M17.8,51.8H0V0h17.8c4.6,0,8.3,0.5,11.3,1.4c3,0.9,5.2,2.5,6.9,4.6c1.6,2.2,2.8,4.7,3.4,7.6c0.6,2.9,0.9,6.7,0.9,11.4
		c0,4.7-0.3,8.5-0.9,11.6c-0.6,3.1-1.6,5.8-3.2,8.2c-1.6,2.4-3.9,4.2-6.9,5.3C26.3,51.2,22.5,51.8,17.8,51.8z M29.1,31.2
		c0.1-1.6,0.2-3.9,0.2-6.7c0-2.9-0.1-5.2-0.3-6.9c-0.2-1.7-0.7-3.3-1.5-4.7c-0.8-1.4-1.9-2.4-3.5-2.9c-1.5-0.5-3.6-0.8-6.2-0.8h-7.1
		v33.5h7.1c3.9,0,6.7-1,8.5-2.9C27.8,38.2,28.7,35.3,29.1,31.2z"/>
	<path d="M110.9,8.9c-5.6,0-8.5,1.8-8.5,5.3c0,1.6,0.7,2.8,2.1,3.6c1.4,0.8,4.7,2,9.8,3.6c5.2,1.6,8.8,3.3,10.8,5.3
		c2.1,2,3.1,5,3.1,9.2c0,5.2-1.7,9.2-5.1,11.9c-3.4,2.7-7.8,4-13.2,4c-4,0-9-0.6-14.8-1.8l-2.8-0.5l1.1-7.9
		c6.9,0.9,12.3,1.3,15.9,1.3c5.5,0,8.2-2.2,8.2-6.5c0-1.6-0.6-2.8-1.9-3.7c-1.3-0.9-3.8-1.8-7.6-2.9c-6-1.6-10.2-3.5-12.7-5.8
		c-2.5-2.2-3.7-5.3-3.7-9.3c0-5,1.6-8.7,4.8-11.2c3.2-2.5,7.6-3.7,13.2-3.7c3.8,0,8.7,0.5,14.6,1.5l2.8,0.5l-0.9,8
		C119,9.3,113.9,8.9,110.9,8.9z"/>
	<path d="M186,51.8V0h18.3l9.3,37.8L222.9,0h18.3v51.8h-10.7V11.7h-1.2L219,49.5h-10.7l-10.3-37.8h-1.2v40.1H186z"/>
	<path d="M291.8,9.3V0h38.9v9.3h-14v42.5H306V9.3H291.8z"/>
	<path d="M337.5,51.8V0h10.7v51.8H337.5z"/>
	<g>
		<path d="M166,0.1h11.9l-16.4,20.7l19.3,31h-11.9L155,29.2l-7.1,8.8v13.8h-10.8V37.2L166,0.1z"/>
		<path d="M137.1,0.1h10.8v10l-10.8,14V0.1z"/>
	</g>
	<g>
		<path d="M385.2,0.2h11.9L380.7,21L400,52h-11.9l-13.9-22.7l-7.1,8.8V52h-10.8V37.3L385.2,0.2z"/>
		<path d="M356.4,0.2h10.8v10l-10.8,14V0.2z"/>
	</g>
	<g>
		<rect x="49.6" width="34.2" height="9.1"/>
		<rect x="49.6" y="42.7" width="34.2" height="9.1"/>
		<rect x="49.6" y="21.3" width="34.2" height="9.1"/>
	</g>
</g>
</svg>
